<svg width="1440" height="1749" viewBox="0 0 1440 1749" fill="none" xmlns="http://www.w3.org/2000/svg">
<g filter="url(#filter0_f_447_519)">
<g filter="url(#filter1_f_447_519)">
<path d="M1222.77 405.512C1329.4 466.463 1368.18 611.426 1406.95 761.332C1445.73 912.885 1484.5 1067.73 1403.08 1140.21C1321.65 1214.34 1118.08 1204.46 947.468 1245.64C774.918 1288.47 637.266 1382.37 480.226 1390.61C325.125 1398.84 148.698 1319.77 69.2086 1196.22C-12.2194 1074.32 3.29065 906.296 45.9434 751.448C88.5962 596.6 160.33 453.284 286.35 397.275C410.431 339.619 588.797 365.976 765.224 367.624C941.651 369.271 1116.14 344.561 1222.77 405.512Z" fill="url(#paint0_linear_447_519)" fill-opacity="0.9"/>
</g>
<circle cx="730.5" cy="753.693" r="452" stroke="#AEB4EA"/>
<circle cx="731" cy="754.193" r="411.5" stroke="#AEB4EA"/>
<circle cx="731.5" cy="754.693" r="367" stroke="#AEB4EA"/>
<circle cx="731.5" cy="754.693" r="322" stroke="#AEB4EA"/>
<circle cx="732" cy="755.193" r="276.5" stroke="#AEB4EA"/>
<circle cx="732.5" cy="755.693" r="222" stroke="#AEB4EA"/>
<circle cx="732.5" cy="755.693" r="182" stroke="#AEB4EA"/>
<circle cx="733" cy="756.193" r="144.5" stroke="#AEB4EA"/>
<circle cx="733.5" cy="756.693" r="106" stroke="#AEB4EA"/>
<circle cx="734" cy="757.193" r="75.5" stroke="#AEB4EA"/>
</g>
<defs>
<filter id="filter0_f_447_519" x="3" y="293.193" width="1456" height="1106" filterUnits="userSpaceOnUse" color-interpolation-filters="sRGB">
<feFlood flood-opacity="0" result="BackgroundImageFix"/>
<feBlend mode="normal" in="SourceGraphic" in2="BackgroundImageFix" result="shape"/>
<feGaussianBlur stdDeviation="4" result="effect1_foregroundBlur_447_519"/>
</filter>
<filter id="filter1_f_447_519" x="-349" y="0.193359" width="2160" height="1751" filterUnits="userSpaceOnUse" color-interpolation-filters="sRGB">
<feFlood flood-opacity="0" result="BackgroundImageFix"/>
<feBlend mode="normal" in="SourceGraphic" in2="BackgroundImageFix" result="shape"/>
<feGaussianBlur stdDeviation="180" result="effect1_foregroundBlur_447_519"/>
</filter>
<linearGradient id="paint0_linear_447_519" x1="11" y1="1391.19" x2="987.014" y2="27.9923" gradientUnits="userSpaceOnUse">
<stop stop-color="#EBECFA"/>
<stop offset="0.5" stop-color="#AEB4EA"/>
<stop offset="1" stop-color="#5D69D5"/>
</linearGradient>
</defs>
</svg>
